<?xml version="1.0" ?><svg viewBox="0 0 48 48" xmlns="http://www.w3.org/2000/svg"><defs><style>.cls-1{fill:#adfff1;}.cls-2{fill:#1674cf;}.cls-3{fill:#f29410;}.cls-4{fill:#fbb40a;}.cls-5{fill:#5cafff;}.cls-6{fill:#fdc300;}.cls-7{fill:#fff8db;}.cls-8{fill:#ebf5ff;}.cls-9{fill:#7cfce6;}.cls-10{fill:#40a1ff;}.cls-11{fill:#0e569b;}.cls-12{fill:#c7fff5;}.cls-13{fill:#005db5;}.cls-14{fill:#00c4a2;}.cls-15{fill:#ffdd7d;}.cls-16{fill:#b36a8e;}.cls-17{fill:#adb5d5;}.cls-18{fill:#27f5d1;}.cls-19{fill:#d9a7bd;}.cls-20{fill:#f6fafd;}.cls-21{fill:#edfffc;}.cls-22{fill:#8dc7ff;}.cls-23{fill:#1985ed;}.cls-24{fill:#ffe2c0;}.cls-25{fill:#ffd869;}.cls-26{fill:#fffcf7;}.cls-27{fill:none;stroke:#001430;stroke-linejoin:round;stroke-width:2px;}</style></defs><title/><g data-name="25-layout" id="_25-layout"><path class="cls-1" d="M47,7V45a2.006,2.006,0,0,1-2,2H3a2.006,2.006,0,0,1-2-2V7Z"/><path class="cls-2" d="M47,3V7H1V3A2.006,2.006,0,0,1,3,1H45A2.006,2.006,0,0,1,47,3Z"/><rect class="cls-3" height="20" width="18" x="5" y="10"/><polygon class="cls-4" points="35 36 38 33 42 37 42 43 26 43 26 39 32 33 35 36"/><polygon class="cls-5" points="42 25 42 37 38 33 35 36 32 33 26 39 26 25 42 25"/><path class="cls-6" d="M14,14a4,4,0,0,0,0,8,7,7,0,0,0-7,7H6V11H22V29H21a7,7,0,0,0-7-7,4,4,0,0,0,0-8Z"/><path class="cls-7" d="M21,29H7a7,7,0,0,1,14,0Z"/><circle class="cls-7" cx="14" cy="18" r="4"/><rect class="cls-2" height="2" width="18" x="5" y="40"/><rect class="cls-2" height="2" width="18" x="5" y="36"/><rect class="cls-2" height="2" width="14" x="9" y="32"/><rect class="cls-2" height="2" width="2" x="5" y="32"/><rect class="cls-2" height="2" width="18" x="25" y="20"/><rect class="cls-2" height="2" width="18" x="25" y="16"/><rect class="cls-2" height="2" width="14" x="29" y="12"/><rect class="cls-8" height="2" rx="1" ry="1" width="4" x="35" y="29"/><rect class="cls-8" height="2" rx="1" ry="1" width="4" x="28" y="27"/><path class="cls-9" d="M47,7V45a2.006,2.006,0,0,1-2,2H3a2.006,2.006,0,0,1-2-2V7Z"/><path class="cls-2" d="M47,3V7H1V3A2.006,2.006,0,0,1,3,1H45A2.006,2.006,0,0,1,47,3Z"/><path class="cls-10" d="M46,7V44.05A1.938,1.938,0,0,1,44.087,46H3.913A1.938,1.938,0,0,1,2,44.05V7H1V45a2.006,2.006,0,0,0,2,2H45a2.006,2.006,0,0,0,2-2V7Z"/><path class="cls-11" d="M45,1H3A2.006,2.006,0,0,0,1,3V7H2V3.667A1.808,1.808,0,0,1,3.913,2H44.087A1.808,1.808,0,0,1,46,3.667V7h1V3A2.006,2.006,0,0,0,45,1Z"/><path class="cls-12" d="M47,39.975V7H8.622A39.966,39.966,0,0,0,47,39.975Z"/><path class="cls-5" d="M47,7V3a2.006,2.006,0,0,0-2-2H8.025a40.161,40.161,0,0,0,.6,6Z"/><path class="cls-10" d="M46,39.95c.331.016.667.017,1,.025V7H46Z"/><path class="cls-13" d="M44.087,2A1.808,1.808,0,0,1,46,3.667V7h1V3a2.006,2.006,0,0,0-2-2H8.025c.008.333.009.669.025,1Z"/><circle class="cls-14" cx="5" cy="4" r="1"/><circle class="cls-15" cx="9" cy="4" r="1"/><circle class="cls-16" cx="13" cy="4" r="1"/><circle class="cls-17" cx="43" cy="4" r="1"/><path class="cls-13" d="M5,5a.985.985,0,0,1-.847-.5A.977.977,0,0,0,4,5,1,1,0,0,0,6,5a.977.977,0,0,0-.153-.5A.985.985,0,0,1,5,5Z"/><path class="cls-2" d="M9,5a.985.985,0,0,1-.847-.5A.977.977,0,0,0,8,5a1,1,0,0,0,2,0,.977.977,0,0,0-.153-.5A.985.985,0,0,1,9,5Z"/><path class="cls-2" d="M13,5a.985.985,0,0,1-.847-.5A.977.977,0,0,0,12,5a1,1,0,0,0,2,0,.977.977,0,0,0-.153-.5A.985.985,0,0,1,13,5Z"/><path class="cls-2" d="M43,5a.985.985,0,0,1-.847-.5A.977.977,0,0,0,42,5a1,1,0,0,0,2,0,.977.977,0,0,0-.153-.5A.985.985,0,0,1,43,5Z"/><ellipse class="cls-18" cx="5" cy="3.5" rx="0.847" ry="0.5"/><ellipse class="cls-7" cx="9" cy="3.5" rx="0.847" ry="0.5"/><ellipse class="cls-19" cx="13" cy="3.5" rx="0.847" ry="0.5"/><ellipse class="cls-20" cx="43" cy="3.5" rx="0.847" ry="0.5"/><rect class="cls-10" height="1" rx="0.5" ry="0.5" width="16" x="23" y="2"/><rect class="cls-10" height="1" rx="0.5" ry="0.5" width="2" x="40" y="2"/><rect class="cls-21" height="1" rx="0.5" ry="0.5" width="20" x="22" y="7"/><rect class="cls-22" height="16" rx="0.5" ry="0.5" width="1" x="46" y="10"/><rect class="cls-22" height="2" rx="0.5" ry="0.5" width="1" x="46" y="7"/><rect class="cls-23" height="16" rx="0.5" ry="0.5" width="1" x="1" y="29"/><rect class="cls-23" height="1" rx="0.5" ry="0.5" width="16" x="3" y="46"/><rect class="cls-3" height="20" width="18" x="5" y="10"/><polygon class="cls-4" points="35 36 38 33 42 37 42 43 26 43 26 39 32 33 35 36"/><polygon class="cls-5" points="42 25 42 37 38 33 35 36 32 33 26 39 26 25 42 25"/><path class="cls-6" d="M14,14a4,4,0,0,0,0,8,7,7,0,0,0-7,7H6V11H22V29H21a7,7,0,0,0-7-7,4,4,0,0,0,0-8Z"/><path class="cls-24" d="M21,29H7a7,7,0,0,1,14,0Z"/><circle class="cls-24" cx="14" cy="18" r="4"/><rect class="cls-2" height="2" width="18" x="5" y="40"/><rect class="cls-2" height="2" width="18" x="5" y="36"/><rect class="cls-2" height="2" width="14" x="9" y="32"/><rect class="cls-2" height="2" width="2" x="5" y="32"/><rect class="cls-2" height="2" width="18" x="25" y="20"/><rect class="cls-2" height="2" width="18" x="25" y="16"/><rect class="cls-2" height="2" width="14" x="29" y="12"/><rect class="cls-8" height="2" rx="1" ry="1" width="4" x="35" y="29"/><rect class="cls-8" height="2" rx="1" ry="1" width="4" x="28" y="27"/><path class="cls-3" d="M23,10H9.278c.086.335.178.668.272,1H22V29H20.457c.358.341.725.673,1.1,1H23Z"/><path class="cls-25" d="M35,36l-3-3-2.472,2.472A39.7,39.7,0,0,0,42,39.535V37l-4-4Z"/><path class="cls-22" d="M32,33l3,3,3-3,4,4V25H26v8.4a39.889,39.889,0,0,0,3.528,2.069Zm4-4h2a1,1,0,0,1,0,2H36a1,1,0,0,1,0-2Zm-8-1a1,1,0,0,1,1-1h2a1,1,0,0,1,0,2H29A1,1,0,0,1,28,28Z"/><path class="cls-25" d="M14,14a3.991,3.991,0,0,1,.565,7.943l.059.088A6.993,6.993,0,0,1,21,29h1V11H9.55a39.7,39.7,0,0,0,1.5,4.321A3.973,3.973,0,0,1,14,14Z"/><path class="cls-26" d="M14.624,22.031A40.086,40.086,0,0,0,20.457,29H21A6.993,6.993,0,0,0,14.624,22.031Z"/><path class="cls-26" d="M18,18a3.987,3.987,0,0,0-6.952-2.679,39.845,39.845,0,0,0,3.517,6.622A3.988,3.988,0,0,0,18,18Z"/><rect class="cls-5" height="2" width="18" x="25" y="20"/><rect class="cls-5" height="2" width="18" x="25" y="16"/><rect class="cls-5" height="2" width="14" x="29" y="12"/><path class="cls-8" d="M36,31h2a1,1,0,0,0,0-2H36a1,1,0,0,0,0,2Z"/><path class="cls-8" d="M31,29a1,1,0,0,0,0-2H29a1,1,0,0,0,0,2Z"/><ellipse class="cls-20" cx="20" cy="15" rx="0.825" ry="1.148" transform="translate(-4.748 18.544) rotate(-45.02)"/><ellipse class="cls-20" cx="18.746" cy="12.5" rx="0.413" ry="0.574" transform="translate(-3.347 16.924) rotate(-45.02)"/><path class="cls-27" d="M47,43v2a2.006,2.006,0,0,1-2,2H3a2.006,2.006,0,0,1-2-2V12"/><path class="cls-27" d="M1,10V3A2.006,2.006,0,0,1,3,1H45a2.006,2.006,0,0,1,2,2V41"/><line class="cls-27" x1="1" x2="47" y1="7" y2="7"/><line class="cls-27" x1="4" x2="6" y1="4" y2="4"/><line class="cls-27" x1="8" x2="10" y1="4" y2="4"/><line class="cls-27" x1="12" x2="14" y1="4" y2="4"/><line class="cls-27" x1="42" x2="44" y1="4" y2="4"/><polygon class="cls-27" points="7 29 6 29 6 11 22 11 22 29 21 29 7 29"/><polygon class="cls-27" points="42 37 42 43 26 43 26 39 26 25 42 25 42 37"/><line class="cls-27" x1="29" x2="43" y1="13" y2="13"/><line class="cls-27" x1="25" x2="43" y1="17" y2="17"/><line class="cls-27" x1="25" x2="43" y1="21" y2="21"/><line class="cls-27" x1="9" x2="23" y1="33" y2="33"/><line class="cls-27" x1="5" x2="23" y1="37" y2="37"/><line class="cls-27" x1="5" x2="23" y1="41" y2="41"/><line class="cls-27" x1="7" x2="5" y1="33" y2="33"/><polyline class="cls-27" points="26 39 32 33 35 36 38 39"/><polyline class="cls-27" points="35 36 38 33 42 37"/><line class="cls-27" x1="28" x2="32" y1="28" y2="28"/><line class="cls-27" x1="35" x2="39" y1="30" y2="30"/><circle class="cls-27" cx="14" cy="18" r="4"/><path class="cls-27" d="M21,29A7,7,0,0,0,7,29"/></g></svg>