<?xml version="1.0" ?><svg id="Layer_1_1_" style="enable-background:new 0 0 64 64;" version="1.1" viewBox="0 0 64 64" xml:space="preserve" xmlns="http://www.w3.org/2000/svg" xmlns:xlink="http://www.w3.org/1999/xlink"><g><g><path d="M24,26v4v8l1,5c0,0-2.1,2.1-6.89,2.78L20,42l0.27-3.98L21,27v-4l-2-8l0.04-0.13    c0.28,0.1,0.58,0.19,0.9,0.29c1.5,0.46,2.77,1.39,3.66,2.59c0.89,1.2,1.4,2.68,1.4,4.25L24,26z" style="fill:#FF826E;"/><path d="M9,23v4l0.73,11.02L10,42l1.89,3.78C7.1,45.1,5,43,5,43l1-5v-8v-4l-1-4c0-3.14,2.05-5.91,5.06-6.84    c0.32-0.1,0.62-0.19,0.9-0.29L11,15L9,23z" style="fill:#FF826E;"/><path d="M18.11,45.78C22.9,45.1,25,43,25,43c0,1.26-0.36,2.45-1,3.46c-0.91,1.45-2.38,2.52-4.15,2.87    C18.02,49.7,16.93,50,15,50s-3.02-0.3-4.85-0.67c-1.5-0.3-2.79-1.11-3.7-2.24C5.54,45.97,5,44.54,5,43c0,0,2.1,2.1,6.89,2.78    C12.82,45.92,13.86,46,15,46S17.18,45.92,18.11,45.78z" style="fill:#CCD1D9;"/><path d="M20,42l-1.89,3.78C17.18,45.92,16.14,46,15,46s-2.18-0.08-3.11-0.22L10,42H20z" style="fill:#FF826E;"/><path d="M19,15l2,8H9l2-8l-0.04-0.13C12.47,14.38,13.57,14,15,14s2.53,0.38,4.04,0.87L19,15z" style="fill:#FF826E;"/><polygon points="21,27 20.27,38.02 20,38 10,38 9.73,38.02 9,27   " style="fill:#AAB2BD;"/><polygon points="20.27,38.02 20,42 10,42 9.73,38.02 10,38 20,38   " style="fill:#69D6F4;"/><rect height="4" style="fill:#69D6F4;" width="12" x="9" y="23"/><path d="M6,26v4H4c-0.55,0-1.05-0.22-1.41-0.59C2.22,29.05,2,28.55,2,28c0-1.1,0.9-2,2-2H6z" style="fill:#CCD1D9;"/><path d="M26,26c1.1,0,2,0.9,2,2c0,0.55-0.22,1.05-0.59,1.41C27.05,29.78,26.55,30,26,30h-2v-4H26z" style="fill:#CCD1D9;"/><path d="M61.41,34.59C61.78,34.95,62,35.45,62,36c0,1.1-0.9,2-2,2h-2v-4h2    C60.55,34,61.05,34.22,61.41,34.59z" style="fill:#CCD1D9;"/><path d="M40,34v4h-2c-1.1,0-2-0.9-2-2c0-0.55,0.22-1.05,0.59-1.41C36.95,34.22,37.45,34,38,34H40z" style="fill:#CCD1D9;"/><path d="M58,34v4l1,4c0,1.57-0.51,3.05-1.4,4.25c-0.89,1.2-2.16,2.13-3.66,2.59    c-0.32,0.1-0.62,0.19-0.9,0.29L53,49l2-8v-4l-0.73-11.02L54,22l-1.89-3.78C56.9,18.9,59,21,59,21l-1,5V34z" style="fill:#FCD770;"/><path d="M43,41l2,8l-0.04,0.13c-0.28-0.1-0.58-0.19-0.9-0.29C41.05,47.91,39,45.14,39,42l1-4v-4v-8l-1-5    c0,0,2.1-2.1,6.89-2.78L44,22l-0.27,3.98L43,37V41z" style="fill:#FCD770;"/><path d="M52.11,18.22C51.18,18.08,50.14,18,49,18s-2.18,0.08-3.11,0.22C41.1,18.9,39,21,39,21    c0-1.54,0.54-2.97,1.45-4.09c0.91-1.13,2.2-1.94,3.7-2.24C45.98,14.3,47.07,14,49,14s3.02,0.3,4.85,0.67    c3,0.6,5.15,3.26,5.15,6.33C59,21,56.9,18.9,52.11,18.22z" style="fill:#CCD1D9;"/><path d="M52.11,18.22L54,22H44l1.89-3.78C46.82,18.08,47.86,18,49,18S51.18,18.08,52.11,18.22z" style="fill:#FCD770;"/><path d="M55,41l-2,8l0.04,0.13C51.53,49.62,50.43,50,49,50s-2.53-0.38-4.04-0.87L45,49l-2-8H55z" style="fill:#FCD770;"/><polygon points="54.27,25.98 55,37 43,37 43.73,25.98 44,26 54,26   " style="fill:#AAB2BD;"/><polygon points="54.27,25.98 54,26 44,26 43.73,25.98 44,22 54,22   " style="fill:#69D6F4;"/><rect height="4" style="fill:#69D6F4;" width="12" x="43" y="37"/></g><g><path d="M15,3c2.375,0,4.609,0.935,6.29,2.632l1.421-1.406C20.652,2.146,17.913,1,15,1S9.348,2.146,7.29,4.226L8.71,5.632    C10.391,3.935,12.625,3,15,3z"/><path d="M19.911,7.055C18.599,5.729,16.855,5,15,5s-3.599,0.729-4.911,2.055l1.421,1.406C12.443,7.519,13.683,7,15,7    s2.557,0.519,3.49,1.461L19.911,7.055z"/><path d="M12.889,9.883l1.422,1.406c0.369-0.373,1.009-0.373,1.378,0l1.422-1.406C15.985,8.744,14.015,8.744,12.889,9.883z"/><path d="M25,37.901V31h1c1.654,0,3-1.346,3-3s-1.346-3-3-3h-0.719l0.689-2.758L26,22c0-3.599-2.315-6.731-5.762-7.795    c-0.395-0.122-0.759-0.241-1.103-0.353C17.673,13.376,16.518,13,15,13c-1.517,0-2.672,0.376-4.135,0.853    c-0.344,0.111-0.708,0.23-1.104,0.353C6.315,15.27,4,18.401,4,22l0.728,3H4c-1.654,0-3,1.346-3,3s1.346,3,3,3h1v6.901l-0.98,4.902    L4,43c0,3.544,2.505,6.62,5.957,7.314l0.802,0.165C12.159,50.771,13.265,51,15,51s2.841-0.229,4.241-0.521l0.803-0.165    c1.972-0.396,3.723-1.605,4.802-3.317h0C25.601,45.8,26,44.417,26,43L25,37.901z M27,28c0,0.552-0.449,1-1,1h-1v-2h1    C26.551,27,27,27.448,27,28z M23.999,21.882l-0.969,3.876L23,38l0.903,4.605c-0.597,0.438-1.891,1.236-3.983,1.792l1.065-2.129    L22,27v-4l-1.624-6.596C22.533,17.378,23.954,19.479,23.999,21.882z M12.547,44.857L11.618,43h6.764l-0.929,1.857    C16.7,44.945,15.888,45,15,45S13.3,44.945,12.547,44.857z M10,24h10.001l0.001,2H10V24z M19.064,41h-8.129l-0.134-2h8.396    L19.064,41z M19.931,28l-0.6,9h-8.663l-0.601-9H19.931z M18.127,15.63L19.719,22h-9.438l1.593-6.37C13.017,15.261,13.923,15,15,15    C16.077,15,16.983,15.261,18.127,15.63z M9.618,16.407L8,22.877l0.002,4.189l1.013,15.201l1.064,2.129    c-2.09-0.555-3.384-1.353-3.981-1.791l0.882-4.41L7,26l-0.999-4.118C6.046,19.481,7.465,17.382,9.618,16.407z M4,29    c-0.551,0-1-0.448-1-1s0.449-1,1-1h1v2H4z M19.651,48.354l-0.816,0.167C17.496,48.799,16.529,49,15,49s-2.496-0.201-3.834-0.479    l-0.815-0.167c-1.777-0.357-3.196-1.589-3.887-3.189C8.185,46.047,10.972,47,15,47c4.04,0,6.832-0.959,8.552-1.843    c-0.114,0.266-0.242,0.526-0.398,0.773C22.354,47.2,21.109,48.061,19.651,48.354z"/><path d="M49,61c-2.375,0-4.609-0.935-6.29-2.632l-1.421,1.406C43.348,61.854,46.087,63,49,63s5.652-1.146,7.71-3.226l-1.421-1.406    C53.609,60.065,51.375,61,49,61z"/><path d="M44.089,56.945C45.401,58.271,47.145,59,49,59s3.599-0.729,4.911-2.055l-1.421-1.406C51.557,56.481,50.317,57,49,57    s-2.557-0.519-3.49-1.461L44.089,56.945z"/><path d="M51.111,54.117l-1.422-1.406c-0.369,0.373-1.009,0.373-1.378,0l-1.422,1.406C47.452,54.687,48.202,55,49,55    S50.548,54.687,51.111,54.117z"/><path d="M60,33h-1v-6.901l0.98-4.902L60,21c0-3.546-2.505-6.622-5.957-7.314l-0.802-0.165C51.841,13.229,50.735,13,49,13    s-2.841,0.229-4.241,0.521l-0.803,0.165C40.505,14.378,38,17.454,38,21l1,5.099V33h-1c-1.654,0-3,1.346-3,3s1.346,3,3,3h0.719    l-0.689,2.758L38,42c0,3.599,2.315,6.73,5.761,7.795c0.395,0.122,0.76,0.241,1.104,0.353C46.328,50.624,47.483,51,49,51    c1.518,0,2.673-0.376,4.136-0.853c0.344-0.111,0.708-0.23,1.103-0.353C57.685,48.731,60,45.599,60,42l-0.728-3H60    c1.654,0,3-1.346,3-3S61.654,33,60,33z M44.349,15.646l0.816-0.167C46.504,15.201,47.471,15,49,15s2.496,0.201,3.834,0.479    l0.816,0.167c1.777,0.357,3.196,1.588,3.887,3.189C55.815,17.954,53.028,17,49,17s-6.815,0.954-8.537,1.835    C41.154,17.235,42.573,16.003,44.349,15.646z M54,40H43.999l-0.001-2H54V40z M44.936,23h8.129l0.134,2h-8.396L44.936,23z     M44.069,36l0.6-9h8.663l0.601,9H44.069z M45.618,21l0.929-1.857C47.3,19.055,48.112,19,49,19s1.7,0.055,2.453,0.143L52.382,21    H45.618z M37,36c0-0.552,0.449-1,1-1h1v2h-1C37.449,37,37,36.552,37,36z M40.001,42.118l0.969-3.876L41,26l-0.903-4.605    c0.597-0.438,1.891-1.236,3.983-1.792l-1.065,2.129L42,37v4l1.624,6.596C41.468,46.622,40.046,44.521,40.001,42.118z     M45.873,48.37L44.281,42h9.438l-1.593,6.37C50.983,48.739,50.077,49,49,49C47.923,49,47.017,48.739,45.873,48.37z M54.383,47.593    L56,41.123l-0.002-4.189l-1.013-15.201l-1.065-2.129c2.093,0.556,3.387,1.354,3.982,1.79l-0.882,4.41L57,38l0.999,4.118    C57.954,44.519,56.536,46.618,54.383,47.593z M60,37h-1v-2h1c0.551,0,1,0.448,1,1S60.551,37,60,37z"/><polygon points="56,1 56,3 61,3 61,12 63,12 63,1   "/><rect height="2" width="6" x="48" y="1"/><rect height="2" width="6" x="40" y="1"/><polygon points="3,52 1,52 1,63 8,63 8,61 3,61   "/><rect height="2" width="6" x="10" y="61"/><rect height="2" width="6" x="18" y="61"/><polygon points="38,1 31,1 31,61 26,61 26,63 33,63 33,3 38,3   "/></g></g></svg>