<?xml version="1.0" ?><svg id="Layer_1" style="enable-background:new 0 0 256 256;" version="1.1" viewBox="0 0 256 256" xml:space="preserve" xmlns="http://www.w3.org/2000/svg" xmlns:xlink="http://www.w3.org/1999/xlink"><style type="text/css">
	.st0{fill:#F9A7A7;}
	.st1{fill:#F9CFCF;}
	.st2{fill:#3762CC;}
	.st3{fill:#A4C9FF;}
	.st4{fill:#4671C6;}
	.st5{fill:#6BDDDD;}
	.st6{fill:#FFEA92;}
	.st7{fill:#E0EBFC;}
	.st8{fill:#EAA97D;}
	.st9{fill:#B9BEFC;}
	.st10{fill:#DDA073;}
</style><g><g><g><path class="st3" d="M81.323,247.706h18.252h0.582h45.421c6.352,0,11.501-5.149,11.501-11.501V225.6v-24.795v-6.569l8.767-22.885     c0.445-1.162-0.695-2.302-1.857-1.857l-24.03,9.205h-39.802h-0.582H81.323c-6.352,0-11.501,5.149-11.501,11.501v46.003     C69.822,242.557,74.971,247.706,81.323,247.706z"/></g><g><g><path class="st2" d="M145.578,249.706H81.323c-7.444,0-13.501-6.057-13.501-13.501v-46.003c0-7.444,6.057-13.501,13.501-13.501      h58.266l23.685-9.073c1.284-0.492,2.687-0.193,3.66,0.779c0.973,0.973,1.272,2.375,0.78,3.661l-8.634,22.539v41.599      C159.079,243.649,153.022,249.706,145.578,249.706z M81.323,180.701c-5.239,0-9.501,4.262-9.501,9.501v46.003      c0,5.239,4.262,9.501,9.501,9.501h64.255c5.239,0,9.501-4.262,9.501-9.501v-41.969c0-0.245,0.045-0.487,0.132-0.715      l8.315-21.707l-22.853,8.754c-0.228,0.087-0.471,0.132-0.715,0.132H81.323z"/></g></g></g><g><path class="st5" d="M170.95,8h-18.252h-0.582h-45.421c-6.352,0-11.501,5.149-11.501,11.501v10.604V54.9v6.569l-8.767,22.885    c-0.445,1.162,0.695,2.302,1.857,1.857l24.03-9.206h39.802h0.582h18.252c6.352,0,11.501-5.149,11.501-11.501V19.501    C182.451,13.149,177.302,8,170.95,8z"/></g><g><circle class="st7" cx="114.845" cy="42.679" r="7.047"/></g><g><circle class="st7" cx="139.181" cy="42.679" r="7.047"/></g><g><circle class="st7" cx="163.517" cy="42.679" r="7.047"/></g><g><g><path class="st1" d="M102.412,227.947c0.065,0.066,0.133,0.128,0.199,0.193h-0.016L102.412,227.947z"/></g><g><path class="st1" d="M136.759,184.909c-2.251-0.819-4.741,0.341-5.56,2.593l-4.329,11.893H99.983v7.907l-5.288-11.311     c-1.612-3.448-5.948-5.006-9.684-3.478l-0.589,0.241c-0.871,0.356-1.273,1.297-0.897,2.101l9.026,19.307l0.967,1.484     c2.157,3.309,4.669,6.405,7.498,9.243v0c0.145,0.145,0.307,0.254,0.478,0.335c1.888,3.181,5.355,5.314,9.322,5.314h10.01     c5.084,0,9.348-3.502,10.517-8.225l0,0c0.124-0.501,0.214-1.016,0.266-1.543l2.949-17.128l4.794-13.172     C140.171,188.218,139.011,185.729,136.759,184.909z"/></g><g><path class="st2" d="M120.827,232.538h-10.01c-4.335,0-8.416-2.231-10.771-5.857c-0.159-0.115-0.308-0.242-0.446-0.38     c-2.92-2.928-5.53-6.146-7.757-9.563l-0.967-1.483c-0.051-0.079-0.097-0.16-0.137-0.245l-9.026-19.307     c-0.408-0.874-0.439-1.851-0.088-2.75c0.359-0.919,1.103-1.667,2.04-2.049l0.588-0.24c4.702-1.924,10.198,0.088,12.252,4.482     l1.628,3.483c0.301-0.724,1.015-1.233,1.848-1.233h25.487l3.85-10.577c1.196-3.284,4.84-4.984,8.124-3.788     c3.284,1.195,4.983,4.839,3.788,8.124l-4.733,13.003l-2.906,16.883c-0.062,0.587-0.165,1.176-0.307,1.752     C131.866,228.53,126.743,232.538,120.827,232.538z M94.303,213.188l0.891,1.366c2.078,3.187,4.513,6.189,7.24,8.923     c0.357,0.17,0.579,0.386,0.781,0.726c1.587,2.674,4.5,4.335,7.603,4.335h10.01c4.072,0,7.598-2.757,8.575-6.706     c0.103-0.414,0.175-0.837,0.217-1.258c0.004-0.048,0.011-0.096,0.019-0.144l2.948-17.128c0.021-0.117,0.051-0.233,0.092-0.345     l4.794-13.171c0.441-1.211-0.186-2.556-1.397-2.997c-1.209-0.44-2.556,0.186-2.997,1.397l-4.329,11.893     c-0.288,0.79-1.039,1.316-1.879,1.316h-24.888v5.907c0,0.938-0.651,1.749-1.566,1.952c-0.916,0.202-1.849-0.256-2.246-1.105     l-5.288-11.311c-1.165-2.492-4.357-3.602-7.115-2.474l-0.221,0.091L94.303,213.188z"/></g><g><path class="st2" d="M114.316,232.538h-3.499c-4.335,0-8.416-2.231-10.771-5.857c-0.159-0.115-0.308-0.242-0.446-0.38     c-2.92-2.928-5.53-6.146-7.757-9.563l-0.967-1.483c-0.051-0.079-0.097-0.161-0.137-0.246l-9.026-19.307     c-0.408-0.874-0.439-1.851-0.088-2.75c0.359-0.919,1.103-1.667,2.04-2.049l0.588-0.24c4.702-1.924,10.198,0.088,12.252,4.482     l4.884,10.446l5.353,1.329c5.637,1.398,9.574,6.432,9.574,12.24c0,1.104-0.896,2-2,2s-2-0.896-2-2     c0-3.966-2.688-7.402-6.537-8.358l-6.279-1.559c-0.585-0.145-1.074-0.547-1.33-1.094l-5.288-11.311     c-1.165-2.492-4.357-3.602-7.115-2.474l-0.221,0.091l8.757,18.732l0.891,1.366c2.078,3.187,4.513,6.189,7.24,8.923     c0.357,0.17,0.579,0.386,0.781,0.726c1.587,2.674,4.5,4.335,7.603,4.335h3.499c1.104,0,2,0.896,2,2     S115.421,232.538,114.316,232.538z"/></g><g><g><path class="st1" d="M108.826,207.362v-13.897c0-1.244-1.008-2.253-2.253-2.253h-4.338c-1.244,0-2.253,1.008-2.253,2.253v13.897      c0,0.92,0.746,1.665,1.665,1.665h5.512C108.08,209.028,108.826,208.282,108.826,207.362z"/></g><g><path class="st1" d="M117.668,207.362v-13.897c0-1.244-1.008-2.253-2.253-2.253h-4.338c-1.244,0-2.253,1.008-2.253,2.253v13.897      c0,0.92,0.746,1.665,1.665,1.665h5.512C116.923,209.028,117.668,208.282,117.668,207.362z"/></g><g><path class="st1" d="M126.511,207.362v-13.897c0-1.244-1.008-2.253-2.253-2.253h-4.338c-1.244,0-2.253,1.008-2.253,2.253v13.897      c0,0.92,0.746,1.665,1.665,1.665h5.512C125.766,209.028,126.511,208.282,126.511,207.362z"/></g></g><g><g><path class="st2" d="M107.16,211.028h-5.512c-2.021,0-3.666-1.645-3.666-3.666v-13.897c0-2.345,1.908-4.252,4.252-4.252h4.338      c2.345,0,4.253,1.908,4.253,4.252v13.897C110.826,209.383,109.181,211.028,107.16,211.028z M101.982,207.028h4.843v-13.563      c0-0.139-0.113-0.252-0.253-0.252h-4.338c-0.139,0-0.252,0.113-0.252,0.252V207.028z"/></g><g><path class="st2" d="M116.003,211.028h-5.512c-2.021,0-3.665-1.645-3.665-3.666v-13.897c0-2.345,1.908-4.252,4.252-4.252h4.338      c2.345,0,4.252,1.908,4.252,4.252v13.897C119.668,209.383,118.024,211.028,116.003,211.028z M110.826,207.028h4.843v-13.563      c0-0.139-0.113-0.252-0.252-0.252h-4.338c-0.139,0-0.252,0.113-0.252,0.252V207.028z"/></g><g><path class="st2" d="M124.846,211.028h-5.512c-2.021,0-3.666-1.645-3.666-3.666v-13.897c0-2.345,1.908-4.252,4.252-4.252h4.338      c2.345,0,4.252,1.908,4.252,4.252v13.897C128.511,209.383,126.867,211.028,124.846,211.028z M119.668,207.028h4.843v-13.563      c0-0.139-0.113-0.252-0.252-0.252h-4.338c-0.139,0-0.252,0.113-0.252,0.252V207.028z"/></g></g><g><path class="st1" d="M120.827,230.537h-10.01c-2.089,0-4.03-0.603-5.684-1.628v2.215v2.396v5.854h21.378v-5.854v-2.396v-2.208     C124.858,229.94,122.914,230.537,120.827,230.537z"/></g><g><path class="st2" d="M126.512,241.375h-21.379c-1.104,0-2-0.896-2-2V228.91c0-0.726,0.393-1.394,1.027-1.747     s1.41-0.335,2.026,0.047c1.403,0.869,3.005,1.328,4.632,1.328h10.01c1.633,0,3.235-0.457,4.632-1.321     c0.617-0.381,1.393-0.399,2.026-0.046c0.634,0.353,1.026,1.021,1.026,1.747v10.458     C128.512,240.479,127.616,241.375,126.512,241.375z M107.133,237.375h17.379v-5.381c-1.19,0.359-2.431,0.543-3.685,0.543h-10.01     c-1.252,0-2.493-0.186-3.685-0.547V237.375z"/></g></g><g><path class="st0" d="M86.139,134.353h-75v-22.108c0-8.777,7.115-15.892,15.892-15.892h43.216c8.777,0,15.892,7.115,15.892,15.892    V134.353z"/></g><g><path class="st2" d="M86.139,136.353h-75c-1.104,0-2-0.896-2-2v-22.108c0-9.866,8.026-17.892,17.892-17.892h43.216    c9.865,0,17.892,8.026,17.892,17.892v22.108C88.139,135.458,87.243,136.353,86.139,136.353z M13.139,132.353h71v-20.108    c0-7.66-6.232-13.892-13.892-13.892H27.031c-7.66,0-13.892,6.232-13.892,13.892V132.353z"/></g><g><path class="st1" d="M76.92,53.217c-0.063,0-0.123,0.008-0.186,0.009v-2.778c0-16.237-13.162-29.399-29.399-29.399l0,0    c-16.237,0-29.399,13.162-29.399,29.399v2.778c-0.062-0.001-0.123-0.009-0.186-0.009c-4.954,0-8.969,4.016-8.969,8.969    c0,4.954,4.016,8.969,8.969,8.969c0.325,0,0.646-0.019,0.962-0.053c3.034,13.006,14.692,22.698,28.623,22.698l0,0    c13.93,0,25.589-9.692,28.623-22.698c0.316,0.034,0.637,0.053,0.962,0.053c4.954,0,8.969-4.016,8.969-8.969    C85.889,57.232,81.873,53.217,76.92,53.217z"/></g><g><path class="st2" d="M47.335,95.799c-14.121,0-26.297-9.237-30.158-22.659c-5.783-0.299-10.396-5.099-10.396-10.955    c0-5.431,3.967-9.952,9.155-10.819v-0.918c0-17.313,14.086-31.399,31.399-31.399s31.399,14.085,31.399,31.399v0.918    c5.188,0.867,9.155,5.389,9.155,10.819c0,5.856-4.613,10.655-10.396,10.955C73.631,86.563,61.456,95.799,47.335,95.799z     M18.714,69.102c0.919,0,1.733,0.632,1.946,1.546c2.905,12.454,13.874,21.151,26.675,21.151c12.8,0,23.77-8.698,26.675-21.152    c0.229-0.982,1.146-1.648,2.16-1.534c0.247,0.026,0.497,0.042,0.75,0.042c3.843,0,6.969-3.126,6.969-6.969    c0-3.833-3.11-6.953-6.939-6.969c-0.089,0.005-0.181,0.009-0.216,0.009c-0.521,0-1.023-0.204-1.397-0.569    c-0.385-0.376-0.603-0.892-0.603-1.431v-2.778c0-15.108-12.291-27.399-27.399-27.399S19.936,35.34,19.936,50.448v2.778    c0,0.539-0.217,1.055-0.603,1.431c-0.385,0.376-0.883,0.585-1.445,0.569c-0.031-0.001-0.145-0.007-0.175-0.009    c-3.806,0-6.932,3.126-6.932,6.969s3.126,6.969,6.969,6.969c0.253,0,0.504-0.016,0.75-0.042    C18.572,69.105,18.644,69.102,18.714,69.102z"/></g><g><path class="st2" d="M47.335,95.799c-14.121,0-26.297-9.237-30.158-22.659c-5.783-0.299-10.396-5.099-10.396-10.955    c0-5.431,3.967-9.952,9.155-10.819v-0.918c0-17.313,14.086-31.399,31.399-31.399s31.399,14.085,31.399,31.399v0.918    c5.188,0.867,9.155,5.389,9.155,10.819c0,5.856-4.613,10.655-10.396,10.955C73.631,86.563,61.456,95.799,47.335,95.799z     M18.714,69.102c0.919,0,1.733,0.632,1.946,1.546c2.905,12.454,13.874,21.151,26.675,21.151c12.8,0,23.77-8.698,26.675-21.152    c0.229-0.982,1.146-1.648,2.16-1.534c0.247,0.026,0.497,0.042,0.75,0.042c3.843,0,6.969-3.126,6.969-6.969    c0-3.833-3.11-6.953-6.939-6.969c-0.089,0.005-0.181,0.009-0.216,0.009c-0.521,0-1.023-0.204-1.397-0.569    c-0.385-0.376-0.603-0.892-0.603-1.431v-2.778c0-15.108-12.291-27.399-27.399-27.399S19.936,35.34,19.936,50.448v2.778    c0,0.539-0.217,1.055-0.603,1.431c-0.385,0.376-0.883,0.585-1.445,0.569c-0.031-0.001-0.145-0.007-0.175-0.009    c-3.806,0-6.932,3.126-6.932,6.969s3.126,6.969,6.969,6.969c0.253,0,0.504-0.016,0.75-0.042    C18.572,69.105,18.644,69.102,18.714,69.102z"/></g><g><g><path class="st2" d="M31.815,64.362L31.815,64.362c-1.651,0-2.99-1.339-2.99-2.99V56.39c0-1.651,1.339-2.99,2.99-2.99h0     c1.651,0,2.99,1.339,2.99,2.99v4.983C34.805,63.024,33.466,64.362,31.815,64.362z"/></g><g><path class="st2" d="M62.855,64.362L62.855,64.362c-1.651,0-2.99-1.339-2.99-2.99V56.39c0-1.651,1.339-2.99,2.99-2.99h0     c1.651,0,2.99,1.339,2.99,2.99v4.983C65.844,63.024,64.506,64.362,62.855,64.362z"/></g></g><g><path class="st4" d="M76.372,45.87c0.234,1.492,0.362,3.02,0.362,4.578v2.778c0.063-0.001,0.123-0.009,0.186-0.009    c1.74,0,3.359,0.504,4.734,1.361V45.87H76.372z"/></g><g><path class="st4" d="M13.016,45.87v8.708c1.375-0.858,2.994-1.361,4.734-1.361c0.063,0,0.123,0.008,0.186,0.009v-2.778    c0-1.558,0.128-3.086,0.362-4.578H13.016z"/></g><g><g><path class="st2" d="M47.335,79.183c-4.639,0-8.138-2.072-8.138-4.819c0-0.829,0.671-1.5,1.5-1.5s1.5,0.671,1.5,1.5     c0,0.528,1.8,1.819,5.138,1.819s5.138-1.291,5.138-1.819c0-0.829,0.671-1.5,1.5-1.5s1.5,0.671,1.5,1.5     C55.473,77.111,51.974,79.183,47.335,79.183z"/></g></g><g><path class="st4" d="M74.532,44.95h9.932c0.752,0,1.362-0.61,1.362-1.362V23.669c0-8.653-7.015-15.668-15.668-15.668h-0.245    c-2.257,0-4.087,1.83-4.087,4.087v24.157C65.826,41.053,69.724,44.95,74.532,44.95z"/></g><g><path class="st4" d="M53.973,44.949H16.688C11.89,44.949,8,41.06,8,36.261V8h51.06c3.737,0,6.766,3.029,6.766,6.766v18.33    C65.826,39.643,60.519,44.949,53.973,44.949z"/></g><g><path class="st2" d="M84.464,46.95h-9.932c-5.903,0-10.706-4.802-10.706-10.705V12.088c0-3.356,2.731-6.087,6.087-6.087h0.245    c9.742,0,17.668,7.926,17.668,17.668v19.919C87.826,45.442,86.318,46.95,84.464,46.95z M69.914,10.001    c-1.151,0-2.087,0.937-2.087,2.087v24.157c0,3.697,3.008,6.705,6.706,6.705h9.294V23.669c0-7.537-6.131-13.668-13.668-13.668    H69.914z"/></g><g><path class="st2" d="M81.654,56.578c-0.368,0-0.735-0.102-1.059-0.303c-1.11-0.692-2.381-1.058-3.676-1.058    c-0.021,0.004-0.087,0.008-0.154,0.009c-0.541,0.004-1.053-0.199-1.435-0.575s-0.597-0.89-0.597-1.425v-2.778    c0-1.403-0.114-2.839-0.338-4.269c-0.09-0.577,0.076-1.166,0.457-1.61c0.38-0.444,0.935-0.7,1.52-0.7h5.282c1.104,0,2,0.896,2,2    v8.708c0,0.727-0.394,1.396-1.03,1.749C82.322,56.495,81.988,56.578,81.654,56.578z M78.734,51.369    c0.31,0.052,0.616,0.118,0.92,0.197V47.87h-1.028c0.072,0.865,0.108,1.727,0.108,2.578V51.369z"/></g><g><path class="st2" d="M13.016,56.578c-0.334,0-0.668-0.083-0.97-0.251c-0.636-0.353-1.03-1.022-1.03-1.749V45.87    c0-1.104,0.896-2,2-2h5.282c0.584,0,1.14,0.255,1.52,0.7c0.38,0.444,0.547,1.032,0.457,1.609    c-0.224,1.433-0.338,2.869-0.338,4.269v2.778c0,0.536-0.215,1.049-0.597,1.425s-0.884,0.579-1.435,0.575    c-0.037-0.001-0.162-0.007-0.199-0.01c-1.25,0-2.521,0.366-3.631,1.059C13.751,56.477,13.383,56.578,13.016,56.578z M15.016,47.87    v3.696c0.304-0.079,0.61-0.145,0.92-0.197v-0.921c0-0.851,0.037-1.712,0.109-2.578H15.016z"/></g><g><path class="st1" d="M47.335,93.799c-5.299,0-10.267-1.405-14.559-3.859v11.603c0,1.815,1.471,3.287,3.287,3.287h22.545    c1.815,0,3.287-1.471,3.287-3.287V89.94C57.602,92.394,52.634,93.799,47.335,93.799z"/></g><g><path class="st2" d="M58.607,106.83H36.062c-2.915,0-5.287-2.372-5.287-5.287V89.94c0-0.713,0.379-1.372,0.996-1.73    c0.618-0.357,1.378-0.36,1.997-0.006c4.114,2.352,8.806,3.595,13.567,3.595s9.452-1.243,13.566-3.595    c0.62-0.354,1.38-0.351,1.997,0.006c0.617,0.358,0.996,1.017,0.996,1.73v11.603C63.894,104.458,61.522,106.83,58.607,106.83z     M34.775,93.179v8.364c0,0.709,0.577,1.287,1.287,1.287h22.545c0.709,0,1.287-0.577,1.287-1.287v-8.364    C52.008,96.622,42.661,96.622,34.775,93.179z"/></g><g><path class="st2" d="M53.973,46.95H16.688C10.795,46.95,6,42.155,6,36.261V8c0-1.104,0.896-2,2-2h51.06    c4.834,0,8.767,3.933,8.767,8.767v18.33C67.826,40.735,61.612,46.95,53.973,46.95z M10,10v26.261c0,3.688,3,6.688,6.688,6.688    h37.285c5.433,0,9.853-4.42,9.853-9.854v-18.33c0-2.628-2.138-4.767-4.767-4.767H10z"/></g><g><path class="st0" d="M247.491,247.706h-75v-22.108c0-8.777,7.115-15.892,15.892-15.892h43.216c8.777,0,15.892,7.115,15.892,15.892    V247.706z"/></g><g><path class="st2" d="M247.491,249.706h-75c-1.104,0-2-0.896-2-2v-22.108c0-9.865,8.026-17.892,17.892-17.892h43.216    c9.866,0,17.892,8.026,17.892,17.892v22.108C249.491,248.811,248.596,249.706,247.491,249.706z M174.491,245.706h71v-20.108    c0-7.66-6.232-13.892-13.892-13.892h-43.216c-7.66,0-13.892,6.232-13.892,13.892V245.706z"/></g><g><path class="st1" d="M239.576,166.569c-0.063,0-0.123,0.008-0.186,0.009v-2.778c0-16.237-13.162-29.399-29.399-29.399l0,0    c-16.237,0-29.399,13.162-29.399,29.399v2.778c-0.062-0.001-0.123-0.009-0.186-0.009c-4.954,0-8.969,4.016-8.969,8.969    c0,4.954,4.016,8.969,8.969,8.969c0.325,0,0.646-0.019,0.962-0.053c3.034,13.006,14.692,22.698,28.623,22.698l0,0    c13.93,0,25.589-9.692,28.623-22.698c0.316,0.034,0.637,0.053,0.962,0.053c4.954,0,8.969-4.016,8.969-8.969    C248.545,170.585,244.53,166.569,239.576,166.569z"/></g><g><path class="st2" d="M209.991,209.152c-14.121,0-26.297-9.237-30.158-22.659c-5.783-0.299-10.396-5.099-10.396-10.955    c0-5.431,3.967-9.953,9.155-10.819v-0.918c0-17.313,14.085-31.399,31.399-31.399s31.399,14.085,31.399,31.399v0.918    c5.188,0.867,9.155,5.389,9.155,10.819c0,5.856-4.613,10.655-10.396,10.955C236.288,199.916,224.112,209.152,209.991,209.152z     M181.37,182.455c0.919,0,1.733,0.632,1.946,1.546c2.905,12.454,13.874,21.152,26.675,21.152s23.77-8.698,26.675-21.152    c0.229-0.983,1.144-1.647,2.16-1.535c0.247,0.026,0.497,0.042,0.75,0.042c3.843,0,6.969-3.126,6.969-6.969    c0-3.832-3.109-6.952-6.937-6.969c-0.078,0.004-0.182,0.01-0.218,0.009c-0.524,0-1.029-0.206-1.403-0.575    c-0.382-0.376-0.597-0.89-0.597-1.425v-2.778c0-15.108-12.291-27.399-27.399-27.399s-27.399,12.291-27.399,27.399v2.778    c0,0.536-0.215,1.049-0.597,1.425c-0.381,0.376-0.899,0.576-1.435,0.575c-0.037-0.001-0.161-0.007-0.198-0.01    c-3.799,0-6.926,3.127-6.926,6.97s3.126,6.969,6.969,6.969c0.254,0,0.504-0.016,0.75-0.042    C181.229,182.458,181.3,182.455,181.37,182.455z"/></g><g><path class="st2" d="M209.991,209.152c-14.121,0-26.297-9.237-30.158-22.659c-5.783-0.299-10.396-5.099-10.396-10.955    c0-5.431,3.967-9.953,9.155-10.819v-0.918c0-17.313,14.085-31.399,31.399-31.399s31.399,14.085,31.399,31.399v0.918    c5.188,0.867,9.155,5.389,9.155,10.819c0,5.856-4.613,10.655-10.396,10.955C236.288,199.916,224.112,209.152,209.991,209.152z     M181.37,182.455c0.919,0,1.733,0.632,1.946,1.546c2.905,12.454,13.874,21.152,26.675,21.152s23.77-8.698,26.675-21.152    c0.229-0.983,1.144-1.647,2.16-1.535c0.247,0.026,0.497,0.042,0.75,0.042c3.843,0,6.969-3.126,6.969-6.969    c0-3.832-3.109-6.952-6.937-6.969c-0.078,0.004-0.182,0.01-0.218,0.009c-0.524,0-1.029-0.206-1.403-0.575    c-0.382-0.376-0.597-0.89-0.597-1.425v-2.778c0-15.108-12.291-27.399-27.399-27.399s-27.399,12.291-27.399,27.399v2.778    c0,0.536-0.215,1.049-0.597,1.425c-0.381,0.376-0.899,0.576-1.435,0.575c-0.037-0.001-0.161-0.007-0.198-0.01    c-3.799,0-6.926,3.127-6.926,6.97s3.126,6.969,6.969,6.969c0.254,0,0.504-0.016,0.75-0.042    C181.229,182.458,181.3,182.455,181.37,182.455z"/></g><g><g><path class="st2" d="M194.471,177.715L194.471,177.715c-1.651,0-2.99-1.339-2.99-2.99v-4.983c0-1.651,1.339-2.99,2.99-2.99l0,0     c1.651,0,2.99,1.339,2.99,2.99v4.983C197.461,176.377,196.123,177.715,194.471,177.715z"/></g><g><path class="st2" d="M225.511,177.715L225.511,177.715c-1.651,0-2.99-1.339-2.99-2.99v-4.983c0-1.651,1.339-2.99,2.99-2.99h0     c1.651,0,2.99,1.339,2.99,2.99v4.983C228.501,176.377,227.162,177.715,225.511,177.715z"/></g></g><g><path class="st4" d="M239.029,159.223c0.234,1.492,0.362,3.02,0.362,4.578v2.778c0.063-0.001,0.123-0.009,0.186-0.009    c1.74,0,3.359,0.504,4.734,1.361v-8.708H239.029z"/></g><g><path class="st4" d="M175.672,159.223v8.708c1.375-0.858,2.994-1.361,4.734-1.361c0.063,0,0.123,0.008,0.186,0.009v-2.778    c0-1.558,0.128-3.086,0.362-4.578H175.672z"/></g><g><g><path class="st2" d="M209.991,193.035c-5.005,0-8.638-2.237-8.638-5.319c0-1.104,0.896-2,2-2s2,0.896,2,2     c0.161,0.312,1.802,1.319,4.638,1.319s4.477-1.007,4.652-1.408c0-1.105,0.889-1.956,1.993-1.956s1.993,0.94,1.993,2.044     C218.629,190.798,214.996,193.035,209.991,193.035z"/></g></g><g><path class="st4" d="M231.719,159.223h15.528c1.148,0,2.079-0.931,2.079-2.079v-11.877c0-13.207-10.707-23.914-23.914-23.914    h-0.742c-3.445,0-6.238,2.793-6.238,6.238v18.345C218.432,153.274,224.381,159.223,231.719,159.223z"/></g><g><path class="st4" d="M199.801,159.223h-27.057c-1.153,0-2.088-0.935-2.088-2.088v-9.822c0-14.337,11.623-25.96,25.96-25.96h15.645    c3.441,0,6.23,2.789,6.23,6.23v12.948C218.492,150.854,210.124,159.223,199.801,159.223z"/></g><g><path class="st2" d="M247.247,161.223h-15.528c-8.429,0-15.287-6.857-15.287-15.287v-18.345c0-4.543,3.696-8.239,8.238-8.239    h0.742c14.289,0,25.914,11.625,25.914,25.914v11.876C251.326,159.393,249.496,161.223,247.247,161.223z M224.67,123.353    c-2.337,0-4.238,1.901-4.238,4.239v18.345c0,6.224,5.063,11.287,11.287,11.287h15.528c0.044,0,0.08-0.036,0.08-0.08v-11.876    c0-12.083-9.831-21.914-21.914-21.914H224.67z"/></g><g><path class="st2" d="M199.801,161.223h-27.057c-2.254,0-4.087-1.834-4.087-4.088v-9.822c0-15.417,12.543-27.96,27.96-27.96h15.645    c4.538,0,8.23,3.692,8.23,8.23v12.948C220.492,151.94,211.21,161.223,199.801,161.223z M196.617,123.353    c-13.211,0-23.96,10.749-23.96,23.96v9.822c0,0.048,0.039,0.088,0.087,0.088h27.057c9.204,0,16.691-7.488,16.691-16.691v-12.948    c0-2.333-1.898-4.23-4.23-4.23H196.617z"/></g><g><path class="st2" d="M244.31,169.931c-0.368,0-0.735-0.102-1.059-0.303c-1.109-0.692-2.38-1.058-3.675-1.058    c-0.022,0.004-0.088,0.008-0.155,0.009c-0.531,0.001-1.052-0.199-1.435-0.575c-0.382-0.376-0.597-0.89-0.597-1.425v-2.778    c0-1.403-0.114-2.839-0.338-4.269c-0.09-0.577,0.076-1.166,0.457-1.61c0.38-0.444,0.935-0.7,1.52-0.7h5.282c1.104,0,2,0.896,2,2    v8.708c0,0.727-0.394,1.396-1.03,1.749C244.978,169.847,244.644,169.931,244.31,169.931z M241.39,164.722    c0.31,0.052,0.616,0.118,0.92,0.197v-3.696h-1.028c0.072,0.865,0.108,1.727,0.108,2.578V164.722z"/></g><g><path class="st2" d="M175.672,169.931c-0.334,0-0.668-0.083-0.97-0.251c-0.636-0.353-1.03-1.022-1.03-1.749v-8.708    c0-1.104,0.896-2,2-2h5.282c0.584,0,1.14,0.256,1.52,0.7c0.38,0.444,0.547,1.033,0.457,1.61c-0.224,1.43-0.338,2.866-0.338,4.269    v2.778c0,0.536-0.215,1.049-0.597,1.425c-0.381,0.376-0.899,0.576-1.435,0.575c-0.037-0.001-0.161-0.007-0.198-0.01    c-1.251,0-2.522,0.366-3.632,1.059C176.408,169.829,176.04,169.931,175.672,169.931z M177.672,161.223v3.696    c0.304-0.079,0.61-0.145,0.92-0.197v-0.921c0-0.852,0.037-1.713,0.108-2.578H177.672z"/></g><g><path class="st1" d="M209.991,207.152c-5.299,0-10.267-1.405-14.559-3.859v11.603c0,1.815,1.471,3.287,3.287,3.287h22.545    c1.815,0,3.287-1.471,3.287-3.287v-11.603C220.259,205.747,215.29,207.152,209.991,207.152z"/></g><g><path class="st2" d="M221.264,220.183h-22.545c-2.915,0-5.287-2.372-5.287-5.287v-11.604c0-0.713,0.379-1.372,0.996-1.73    c0.617-0.358,1.377-0.36,1.997-0.006c4.114,2.352,8.805,3.595,13.566,3.595c4.762,0,9.453-1.243,13.566-3.595    c0.62-0.354,1.38-0.352,1.996,0.006c0.617,0.358,0.997,1.017,0.997,1.73v11.604C226.55,217.812,224.179,220.183,221.264,220.183z     M197.432,206.532v8.365c0,0.709,0.577,1.287,1.287,1.287h22.545c0.709,0,1.287-0.577,1.287-1.287v-8.364    C214.667,209.974,205.319,209.975,197.432,206.532z"/></g><g><g><path class="st5" d="M62.01,207.05h-6c-2.209,0-4,1.791-4,4s1.791,4,4,4h6c2.209,0,4-1.791,4-4S64.219,207.05,62.01,207.05z"/></g><g><path class="st5" d="M43.99,207.05h-2v-2c0-2.209-1.791-4-4-4s-4,1.791-4,4v6c0,2.209,1.791,4,4,4h6c2.209,0,4-1.791,4-4     S46.199,207.05,43.99,207.05z"/></g><g><path class="st5" d="M33.99,193.998c0,2.209,1.791,4,4,4s4-1.791,4-4v-9.473c0-2.209-1.791-4-4-4s-4,1.791-4,4V193.998z"/></g><g><path class="st5" d="M37.99,177.474c2.209,0,4-1.791,4-4v-9.473c0-2.209-1.791-4-4-4s-4,1.791-4,4v9.473     C33.99,175.683,35.781,177.474,37.99,177.474z"/></g><g><path class="st5" d="M53.206,158.101c1.306-1.782,0.92-4.285-0.862-5.591l-11.989-8.786c-0.023-0.017-0.049-0.028-0.073-0.045     c-0.068-0.048-0.142-0.088-0.213-0.131c-0.135-0.082-0.271-0.159-0.412-0.224c-0.081-0.037-0.164-0.07-0.248-0.102     c-0.151-0.057-0.304-0.104-0.459-0.143c-0.078-0.019-0.154-0.041-0.234-0.056c-0.481-0.089-0.971-0.089-1.452,0     c-0.079,0.015-0.154,0.036-0.232,0.055c-0.156,0.039-0.31,0.086-0.462,0.143c-0.083,0.032-0.165,0.064-0.245,0.101     c-0.142,0.065-0.279,0.142-0.414,0.225c-0.071,0.044-0.144,0.083-0.212,0.131c-0.024,0.017-0.05,0.028-0.073,0.045l-11.99,8.786     c-1.782,1.306-2.168,3.809-0.862,5.591c0.784,1.069,1.999,1.636,3.23,1.636c0.82,0,1.648-0.252,2.361-0.774l5.98-4.382     c0.625,1.394,2.019,2.369,3.646,2.369c1.627,0,3.021-0.975,3.646-2.369l5.979,4.382C49.397,160.268,51.9,159.882,53.206,158.101z     "/></g></g><g><g><path class="st3" d="M218.01,78.525c-2.209,0-4,1.791-4,4v9.473c0,2.209,1.791,4,4,4s4-1.791,4-4v-9.473     C222.01,80.316,220.219,78.525,218.01,78.525z"/></g><g><path class="st3" d="M222.01,62.001c0-2.209-1.791-4-4-4s-4,1.791-4,4v9.473c0,2.209,1.791,4,4,4s4-1.791,4-4V62.001z"/></g><g><path class="st3" d="M212.01,48.95h2v2c0,2.209,1.791,4,4,4s4-1.791,4-4v-6c0-2.209-1.791-4-4-4h-6c-2.209,0-4,1.791-4,4     S209.801,48.95,212.01,48.95z"/></g><g><path class="st3" d="M203.99,44.95c0-2.209-1.791-4-4-4h-6c-2.209,0-4,1.791-4,4s1.791,4,4,4h6     C202.199,48.95,203.99,47.159,203.99,44.95z"/></g><g><path class="st3" d="M233.227,97.899c-1.306-1.782-3.809-2.168-5.591-0.862l-5.98,4.382c-0.625-1.394-2.019-2.369-3.646-2.369     c-1.627,0-3.021,0.975-3.646,2.369l-5.979-4.382c-1.782-1.306-4.285-0.919-5.591,0.862c-1.306,1.782-0.92,4.285,0.862,5.591     l11.989,8.786c0.023,0.017,0.049,0.028,0.073,0.045c0.068,0.048,0.141,0.087,0.213,0.131c0.135,0.083,0.271,0.159,0.413,0.224     c0.081,0.037,0.163,0.07,0.246,0.102c0.151,0.057,0.304,0.104,0.459,0.143c0.079,0.019,0.155,0.041,0.236,0.056     c0.24,0.044,0.482,0.073,0.725,0.073c0.243,0,0.485-0.029,0.724-0.073c0.081-0.015,0.158-0.037,0.237-0.056     c0.155-0.038,0.307-0.085,0.458-0.142c0.084-0.032,0.166-0.065,0.248-0.102c0.141-0.065,0.278-0.141,0.412-0.224     c0.071-0.044,0.145-0.083,0.213-0.131c0.024-0.016,0.049-0.028,0.073-0.045l11.99-8.786     C234.146,102.184,234.532,99.681,233.227,97.899z"/></g></g><g><path class="st2" d="M87.753,88.312c-0.889,0-1.751-0.35-2.414-1.013c-0.973-0.973-1.271-2.375-0.779-3.661l8.634-22.54V19.501    C93.194,12.057,99.25,6,106.695,6h64.255c7.444,0,13.501,6.057,13.501,13.501v46.003c0,7.444-6.057,13.501-13.501,13.501h-58.266    L89,88.079C88.59,88.235,88.169,88.312,87.753,88.312z M106.695,10c-5.239,0-9.501,4.262-9.501,9.501v41.968    c0,0.245-0.045,0.487-0.132,0.715l-8.316,21.708l22.853-8.755c0.228-0.087,0.471-0.132,0.715-0.132h58.636    c5.239,0,9.501-4.262,9.501-9.501V19.501c0-5.239-4.262-9.501-9.501-9.501H106.695z"/></g></g></svg>