<?xml version="1.0" ?><svg viewBox="0 0 60 60" xmlns="http://www.w3.org/2000/svg"><defs><style>.cls-1{fill:#abb1bb;}.cls-2{fill:#cbd1d7;}.cls-3{fill:#42ba9e;}.cls-4{fill:#54ceaf;}.cls-5{fill:#8feaff;}.cls-6{fill:#fab864;}.cls-7{fill:#e5e8eb;}.cls-8{fill:#6dddbf;}.cls-9{fill:#373737;}</style></defs><title/><g id="icons"><path class="cls-1" d="M7,13v4H3a2,2,0,0,1-2-2,1.955,1.955,0,0,1,.59-1.41A1.813,1.813,0,0,1,2,13.27,2,2,0,0,1,3,13Z"/><polygon class="cls-2" points="37 49 37 18 43.78 18.02 55 47 37 49"/><path class="cls-3" d="M11,13V6.07A5.068,5.068,0,0,1,20.6,3.8l2.77,5.8L25,13Z"/><path class="cls-3" d="M47.58,11V7.77a2.61,2.61,0,0,1,4.78-1.45l.18.28L55.292,12H47.58Z"/><path class="cls-4" d="M29,21l22.92-4.62L59,13V11.68a16.5,16.5,0,0,0-.85-5.22l-.59-1.79a2.436,2.436,0,0,0-4.73.47,22.039,22.039,0,0,1-1.01,3.89A2.991,2.991,0,0,1,49,11H8a2,2,0,0,0-2,2v4a4,4,0,0,0,4,4H29Z"/><path class="cls-3" d="M29,21c-7-4.5-14,0-14,0l4.4,9.2a5.07,5.07,0,0,0,5.163,2.764h0A5.07,5.07,0,0,0,29,27.93Z"/><path class="cls-5" d="M34,11a12.638,12.638,0,0,1-2.28,1.11A13.488,13.488,0,0,1,27,13c-4,0-5-2-5-2a.124.124,0,0,0,.02-.03v-.01A7.569,7.569,0,0,1,27,8.07h.02a.277.277,0,0,1,.09-.01.986.986,0,0,1,.24-.03c.21-.02.43-.03.65-.03A7.5,7.5,0,0,1,34,11Z"/><path class="cls-3" d="M51.925,16.387l2.3,3.453A2.606,2.606,0,0,0,56.394,21h0A2.606,2.606,0,0,0,59,18.394V13H55a5.25,5.25,0,0,0-2.333.5A1.987,1.987,0,0,0,51.925,16.387Z"/><path class="cls-6" d="M12,47H56a3,3,0,0,1,3,3v8a1,1,0,0,1-1,1H10a1,1,0,0,1-1-1V50A3,3,0,0,1,12,47Z"/><path class="cls-7" d="M18,51H50a2,2,0,0,1,2,2v6a0,0,0,0,1,0,0H16a0,0,0,0,1,0,0V53A2,2,0,0,1,18,51Z"/><path class="cls-8" d="M17,11H11V7h3.4a1.089,1.089,0,0,1,.97.55Z"/><path class="cls-8" d="M21.92,28H18.35l-1.92-4h4.4a1.089,1.089,0,0,1,.97.55l1.08,2A1,1,0,0,1,21.92,28Z"/><path class="cls-9" d="M58.506,4.348a3.426,3.426,0,0,0-6.582.265A3.586,3.586,0,0,0,50.19,4.16a3.6,3.6,0,0,0-3.61,3.61V10H34a.857.857,0,0,0-.088.018,1.034,1.034,0,0,0-.384.116.851.851,0,0,0-.083.034A12.816,12.816,0,0,1,27,12a5.631,5.631,0,0,1-3.688-1.011A6.487,6.487,0,0,1,28,9a1,1,0,0,0,0-2,8.33,8.33,0,0,0-4.226,1.125l-2.28-4.772A6.069,6.069,0,0,0,10,6.07V10H8a3,3,0,0,0-2.816,2H3V8A1,1,0,0,0,1,8v4.78a2.964,2.964,0,0,0,0,4.44V22a1,1,0,0,0,2,0V18H5.1A5.009,5.009,0,0,0,10,22h4.369l1.137,2.378.013.027,2.982,6.24A6.07,6.07,0,0,0,30,27.93V21.819l6-1.21V46H23a1,1,0,0,0,0,2H56a2,2,0,0,1,2,2v8H53V53a3,3,0,0,0-3-3H18a3,3,0,0,0-3,3v5H10V50a2,2,0,0,1,2-2h5a1,1,0,0,0,0-2H12a4,4,0,0,0-4,4v8a2,2,0,0,0,2,2H58a2,2,0,0,0,2-2V50a4,4,0,0,0-4-4h-.315L48.933,28.559a1,1,0,1,0-1.866.722L53.54,46H38V20.206l5.152-1.039,2.011,5.194a1,1,0,1,0,1.865-.722l-1.886-4.873,6.318-1.273L53.4,20.4a3.605,3.605,0,0,0,6.6-2V11.68a17.484,17.484,0,0,0-.9-5.534ZM17,58V53a1,1,0,0,1,1-1H50a1,1,0,0,1,1,1v5ZM48.58,7.77a1.631,1.631,0,0,1,.459-1.135,1.68,1.68,0,0,1,2.419.157c-.192.741-.4,1.4-.578,1.9A2,2,0,0,1,49,10h-.42ZM15.566,2.032A4.054,4.054,0,0,1,19.7,4.23l2.442,5.112a7.947,7.947,0,0,0-.625.658H17.633L16.254,7.082A2.078,2.078,0,0,0,14.4,6H12.006a4.07,4.07,0,0,1,3.56-3.968ZM12,7.993l2.466-.016L15.422,10H12ZM2,15a1,1,0,0,1,1-1H5v2H3A1,1,0,0,1,2,15Zm5,2V13a1,1,0,0,1,1-1H21.489c.647.759,2.206,2,5.511,2a14.878,14.878,0,0,0,7.283-2H49a4.01,4.01,0,0,0,3.763-2.635,25,25,0,0,0,.742-2.525c0-.017.009-.034.013-.051.113-.482.22-.981.3-1.507a1.436,1.436,0,0,1,2.79-.3L57.2,6.776a15.482,15.482,0,0,1,.8,4.9V12H55a6.243,6.243,0,0,0-2.771.6,2.924,2.924,0,0,0-1.539,1.87,3.042,3.042,0,0,0-.073,1.15L29.166,19.946c-6.652-4-13.087-.73-14.44.054H10A3,3,0,0,1,7,17Zm11.024,8.009,2.9.016,1,1.975H18.976ZM28,27.93a4.07,4.07,0,0,1-7.7,1.836L19.932,29H21.92a2.069,2.069,0,0,0,1.8-1,1.937,1.937,0,0,0,.041-1.925l-1.076-1.992A2.078,2.078,0,0,0,20.83,23H17.064l-.753-1.576c1.848-.9,6.746-2.742,11.689.136ZM58,18.4a1.605,1.605,0,0,1-2.941.89l-2.3-3.452A1.03,1.03,0,0,1,52.62,15a.926.926,0,0,1,.485-.6A4.3,4.3,0,0,1,55,14h3Z"/><path class="cls-9" d="M16,16a1,1,0,0,0,0-2H10a1,1,0,0,0,0,2Z"/><path class="cls-9" d="M23,54H22a1,1,0,0,0,0,2h1a1,1,0,0,0,0-2Z"/><path class="cls-9" d="M46,54H27a1,1,0,0,0,0,2H46a1,1,0,0,0,0-2Z"/></g></svg>