<?xml version="1.0" ?><svg id="Layer_1" style="enable-background:new 0 0 64 64;" version="1.1" viewBox="0 0 64 64" xml:space="preserve" xmlns="http://www.w3.org/2000/svg" xmlns:xlink="http://www.w3.org/1999/xlink"><style type="text/css">
	.st0{fill:none;stroke:#58595B;stroke-width:2;stroke-linecap:round;stroke-miterlimit:10;}
	.st1{fill:#FFFFFF;stroke:#58595B;stroke-width:2;stroke-linecap:round;stroke-miterlimit:10;}
	.st2{fill:#FFFFFF;stroke:#58595B;stroke-width:2;stroke-miterlimit:10;}
	.st3{fill:#FFFFFF;stroke:#58595B;stroke-width:2;stroke-linejoin:round;stroke-miterlimit:10;}
	.st4{fill:#58595B;stroke:#58595B;stroke-width:2;stroke-linejoin:round;stroke-miterlimit:10;}
	.st5{fill:#58595B;stroke:#58595B;stroke-width:2;stroke-miterlimit:10;}
	.st6{fill:none;stroke:#FFFFFF;stroke-width:1.5;stroke-linecap:round;stroke-miterlimit:10;}
	.st7{fill:#58595B;stroke:#58595B;stroke-linecap:round;stroke-miterlimit:10;}
	.st8{fill:#FF5757;stroke:#58595B;stroke-linejoin:round;stroke-miterlimit:10;}
	.st9{fill:#C0E264;stroke:#58595B;stroke-linejoin:round;stroke-miterlimit:10;}
	.st10{fill:#DEF0FF;stroke:#58595B;stroke-miterlimit:10;}
	.st11{fill:#848484;stroke:#58595B;stroke-miterlimit:10;}
	.st12{fill:none;stroke:#58595B;stroke-linecap:round;stroke-miterlimit:10;}
	.st13{fill:#FFDFA6;stroke:#58595B;stroke-miterlimit:10;}
	.st14{fill:#FF5757;}
	.st15{fill:#FFFFFF;}
	.st16{fill:none;stroke:#58595B;stroke-linejoin:round;stroke-miterlimit:10;}
	.st17{fill:none;stroke:#58595B;stroke-width:2;stroke-linejoin:round;stroke-miterlimit:10;}
	.st18{fill:none;stroke:#58595B;stroke-width:2;stroke-linecap:round;stroke-linejoin:round;stroke-miterlimit:10;}
	.st19{fill:none;stroke:#FFFFFF;stroke-width:1.5;stroke-linecap:round;stroke-linejoin:round;stroke-miterlimit:10;}
	.st20{fill:none;stroke:#FFFFFF;stroke-width:1.5;stroke-linejoin:round;stroke-miterlimit:10;}
	.st21{fill:#F7F7F7;stroke:#58595B;stroke-linejoin:round;stroke-miterlimit:10;}
	.st22{fill:#DEF0FF;}
	.st23{fill:none;stroke:#58595B;stroke-linecap:round;stroke-linejoin:round;stroke-miterlimit:10;}
	.st24{fill:#FFFFFF;stroke:#58595B;stroke-width:2;stroke-linecap:round;stroke-linejoin:round;stroke-miterlimit:10;}
	.st25{fill:#58595B;stroke:#58595B;stroke-linecap:round;stroke-linejoin:round;stroke-miterlimit:10;}
	.st26{fill:#C0E264;}
	.st27{fill:#FFFFFF;stroke:#58595B;stroke-linecap:round;stroke-linejoin:round;stroke-miterlimit:10;}
	.st28{fill:#58595B;stroke:#58595B;stroke-linejoin:round;stroke-miterlimit:10;}
	.st29{fill:#58595B;stroke:#58595B;stroke-width:2;stroke-linecap:round;stroke-linejoin:round;stroke-miterlimit:10;}
	.st30{fill:#DEF0FF;stroke:#58595B;stroke-linejoin:round;stroke-miterlimit:10;}
	.st31{fill:#848484;stroke:#58595B;stroke-linejoin:round;stroke-miterlimit:10;}
	.st32{fill:#58595B;stroke:#58595B;stroke-width:2;stroke-linecap:round;stroke-miterlimit:10;}
	.st33{fill:#58595B;stroke:#58595B;stroke-miterlimit:10;}
	.st34{fill:#58595B;}
	.st35{fill:none;stroke:#58595B;stroke-width:2;stroke-miterlimit:10;}
	.st36{fill:#FFFFFF;stroke:#58595B;stroke-miterlimit:10;}
	.st37{fill:#DBF482;stroke:#58595B;stroke-linejoin:round;stroke-miterlimit:10;}
</style><g><path class="st10" d="M21.5835018,57.5c-1.4136658,0-2.5598488-1.0051079-2.5598488-2.2447815V42.3367767h-7.7107906   c-1.4136658,0-2.5598469-1.0051079-2.5598469-2.2447815V28.6477852c0-1.2396698,1.1461811-2.2447796,2.5598469-2.2447796   s2.5598478,1.0051098,2.5598478,2.2447796v9.1994324h7.7107916c1.4136658,0,2.5598469,1.0051079,2.5598469,2.2447777v15.1632233   C24.1433487,56.4948921,22.9971676,57.5,21.5835018,57.5z"/><path class="st22" d="M23.6708164,37.8463974H12.8662443c-0.1113958,0-0.2017002-0.0903053-0.2017002-0.2017021v-4.0861588   c0-0.1113968,0.0903044-0.2016983,0.2017002-0.2016983h10.8045721c1.2154465,0,2.2007618,0.9853134,2.2007618,2.2007599v0.0880356   C25.8715782,36.8610802,24.8862629,37.8463974,23.6708164,37.8463974z"/><path class="st23" d="M11.7487526,35.8988724l1.1032934,1.4665794c0.3177137,0.3083992,0.7434158,0.4809418,1.186595,0.4809418   h9.4634113c1.1203003,0,2.158762-0.7639809,2.3387222-1.8676796c0.2293053-1.406311-0.8523216-2.6218796-2.2181511-2.6218796   h-9.7499132"/><path class="st23" d="M11.3128624,42.3367767H7.0575013C5.6450324,42.3367767,4.5,41.1938705,4.5,39.7840271V25.3015823"/><line class="st23" x1="8.1819801" x2="8.1819801" y1="42.3367767" y2="57.5"/><circle class="st13" cx="15.4261818" cy="20.3249493" r="4.4895501"/><path class="st10" d="M42.4165001,57.5c1.4136658,0,2.559845-1.0051079,2.559845-2.2447815V42.3367767h7.7107925   c1.4136658,0,2.5598488-1.0051079,2.5598488-2.2447815V28.6477852c0-1.2396698-1.146183-2.2447796-2.5598488-2.2447796   s-2.5598488,1.0051098-2.5598488,2.2447796v9.1994324h-7.7107887c-1.4136658,0-2.5598488,1.0051079-2.5598488,2.2447777v15.1632233   C39.8566513,56.4948921,41.0028343,57.5,42.4165001,57.5z"/><path class="st22" d="M40.3291855,37.8463974h10.8045692c0.1113968,0,0.2017021-0.0903053,0.2017021-0.2017021v-4.0861588   c0-0.1113968-0.0903053-0.2016983-0.2017021-0.2016983H40.3291817c-1.2154465,0-2.2007599,0.9853134-2.2007599,2.2007599v0.0880356   C38.1284218,36.8610802,39.1137352,37.8463974,40.3291855,37.8463974z"/><path class="st23" d="M52.2512474,35.8988724l-1.1032944,1.4665794c-0.3177147,0.3083992-0.7434158,0.4809418-1.1865959,0.4809418   h-9.4634094c-1.1203003,0-2.1587601-0.7639809-2.3387222-1.8676796c-0.2293053-1.406311,0.8523216-2.6218796,2.2181511-2.6218796   h9.7499123"/><path class="st23" d="M52.6871376,42.3367767h4.2553596c1.4124718,0,2.5575027-1.1429062,2.5575027-2.5527496V25.3015823"/><line class="st23" x1="55.8180199" x2="55.8180199" y1="42.3367767" y2="57.5"/><circle class="st13" cx="48.5738182" cy="20.3249493" r="4.4895592"/><line class="st16" x1="22.4835339" x2="41.516468" y1="37.8463936" y2="37.8463936"/><line class="st23" x1="42.0595398" x2="43.6117363" y1="13.2136221" y2="15.2587128"/><line class="st23" x1="52.3856659" x2="51.1808968" y1="11.8562212" y2="14.1226454"/><line class="st23" x1="46.9134483" x2="47.3029289" y1="10.6982365" y2="13.2343025"/><path class="st21" d="M34.6028442,6.5H23.4299107c-0.4286804,0-0.7760983,0.3469105-0.7760983,0.7746572v6.201642   c0,0.4277468,0.3474178,0.7746572,0.7760983,0.7746572l1.6321144,0.000042l-0.7116547,4.4735022   c0,0,4.3840656-3.3703661,5.8049049-4.4735022l4.4475689-0.000042c0.4286118,0,0.7761002-0.3469105,0.7761002-0.7746572v-6.201642   C35.3789444,6.8469105,35.031456,6.5,34.6028442,6.5z"/><line class="st23" x1="26.4500828" x2="31.582674" y1="10.4281969" y2="10.4281969"/><path class="st31" d="M21.5834103,37.847271h-7.7107515v-0.0009956H8.7529621v2.245636   c0,1.2398033,1.1462059,2.2448921,2.5599728,2.2448921h7.7107525v12.9185104c0,1.2395592,1.1460819,2.2446442,2.5597229,2.2446442   c1.4137669,0,2.5599728-1.005085,2.5599728-2.2446442V40.0919113C24.143383,38.852356,22.9971771,37.847271,21.5834103,37.847271z"/><path class="st31" d="M50.1272926,37.8462753v0.0009956h-7.7107506c-1.4136429,0-2.5599747,1.005085-2.5599747,2.2446404   v15.1634026c0,1.2395592,1.1463318,2.2446442,2.5599747,2.2446442c1.4136391,0,2.5597229-1.005085,2.5597229-2.2446442V42.3368034   h7.7108765c1.4136429,0,2.5598488-1.0050888,2.5598488-2.2448921v-2.245636H50.1272926z"/></g></svg>