<?xml version="1.0" ?><svg id="Layer_3" style="enable-background:new 0 0 64 64;" version="1.1" viewBox="0 0 64 64" xml:space="preserve" xmlns="http://www.w3.org/2000/svg" xmlns:xlink="http://www.w3.org/1999/xlink"><g><g><path d="M56,2H26c-2.209,0-4,1.791-4,4v12v36v4h38V6C60,3.791,58.209,2,56,2z" style="fill:#ECECEC;"/></g><g><rect height="3" style="fill:#B6C1CE;" width="37" x="23" y="35"/></g><g><rect height="3" style="fill:#B6C1CE;" width="38" x="22" y="55"/></g><g><path d="M24,18H4c-1.105,0-2,0.895-2,2v32c0,1.105,0.895,2,2,2h20c1.105,0,2-0.895,2-2V20    C26,18.895,25.105,18,24,18z" style="fill:#92E0C0;"/></g><g><path d="M22,25c0-1.657-1.343-3-3-3s-3,1.343-3,3c0,0.772,0.3,1.468,0.779,2C16.3,27.532,16,28.228,16,29    c0,1.657,1.343,3,3,3s3-1.343,3-3c0-0.772-0.3-1.468-0.779-2C21.7,26.468,22,25.772,22,25z" style="fill:#0FA196;"/></g><g><path d="M24,51H4c-1.105,0-2-0.895-2-2v3c0,1.105,0.895,2,2,2h20c1.105,0,2-0.895,2-2v-3    C26,50.105,25.105,51,24,51z" style="fill:#0FA196;"/></g><g><rect height="8" style="fill:#FEA82F;" width="8" x="6" y="42"/></g><path d="M60,10H22V6c0-2.209,1.791-4,4-4h30c2.209,0,4,1.791,4,4V10z" style="fill:#798699;"/><rect height="16" style="fill:#AFB8C9;" width="30" x="26" y="14"/><polygon points="50,38 49,42 33,42 32,38  " style="fill:#798699;"/><g><rect height="8" style="fill:#39C3FC;" width="16" x="30" y="18"/></g><g><rect height="3" style="fill:#148CE0;" width="16" x="30" y="23"/></g><g><path d="M22,58h38c1.105,0,2,0.895,2,2v2H20v-2C20,58.895,20.895,58,22,58z" style="fill:#798699;"/></g><g><path d="M23,29c0-0.706-0.197-1.392-0.554-2C22.803,26.392,23,25.706,23,25c0-2.206-1.794-4-4-4s-4,1.794-4,4    c0,0.706,0.197,1.392,0.554,2C15.197,27.608,15,28.294,15,29c0,2.206,1.794,4,4,4S23,31.206,23,29z M19,23c1.103,0,2,0.897,2,2    c0,0.185-0.025,0.354-0.066,0.507C20.345,25.178,19.68,25,19,25s-1.345,0.178-1.934,0.507C17.025,25.354,17,25.185,17,25    C17,23.897,17.897,23,19,23z M19,31c-1.103,0-2-0.897-2-2c0-0.621,0.284-1.066,0.521-1.331c0.778-0.863,2.179-0.863,2.957,0    C20.716,27.934,21,28.379,21,29C21,30.103,20.103,31,19,31z"/><path d="M23,50V38c0-0.552-0.448-1-1-1s-1,0.448-1,1v12c0,0.552,0.448,1,1,1S23,50.552,23,50z"/><path d="M18,43c-0.552,0-1,0.448-1,1v6c0,0.552,0.448,1,1,1s1-0.448,1-1v-6C19,43.448,18.552,43,18,43z"/><path d="M14,41H6c-0.552,0-1,0.448-1,1v8c0,0.552,0.448,1,1,1h8c0.552,0,1-0.448,1-1v-8C15,41.448,14.552,41,14,41z M7,49v-2h1    c0.552,0,1-0.448,1-1s-0.448-1-1-1H7v-2h6v2h-1c-0.552,0-1,0.448-1,1s0.448,1,1,1h1v2H7z"/><path d="M45,5h-8c-0.552,0-1,0.448-1,1s0.448,1,1,1h8c0.552,0,1-0.448,1-1S45.552,5,45,5z"/><path d="M46,17H30c-0.552,0-1,0.448-1,1v8c0,0.552,0.448,1,1,1h16c0.552,0,1-0.448,1-1v-8C47,17.448,46.552,17,46,17z M45,25H31    v-6h14V25z"/><path d="M52,17h-2c-0.552,0-1,0.448-1,1s0.448,1,1,1h2c0.552,0,1-0.448,1-1S52.552,17,52,17z"/><path d="M52,21h-2c-0.552,0-1,0.448-1,1s0.448,1,1,1h2c0.552,0,1-0.448,1-1S52.552,21,52,21z"/><path d="M52,25h-2c-0.552,0-1,0.448-1,1s0.448,1,1,1h2c0.552,0,1-0.448,1-1S52.552,25,52,25z"/><path d="M61,57.184V10V6c0-2.757-2.243-5-5-5H26c-2.757,0-5,2.243-5,5v4v7H4c-1.654,0-3,1.346-3,3v32c0,1.654,1.346,3,3,3h17    v2.184c-1.161,0.414-2,1.514-2,2.816v2c0,0.552,0.448,1,1,1h42c0.552,0,1-0.448,1-1v-2C63,58.698,62.161,57.598,61,57.184z M23,6    c0-1.654,1.346-3,3-3h30c1.654,0,3,1.346,3,3v3H23V6z M23,11h36v26h-9H32h-5v-6h29c0.552,0,1-0.448,1-1V14c0-0.552-0.448-1-1-1H26    c-0.552,0-1,0.448-1,1v3.184C24.686,17.072,24.352,17,24,17h-1V11z M48.719,39l-0.5,2H33.781l-0.5-2H48.719z M27,20v-5h28v14H27    V20z M3,52V20c0-0.551,0.449-1,1-1h20c0.551,0,1,0.449,1,1v10v22c0,0.551-0.449,1-1,1H4C3.449,53,3,52.551,3,52z M24,55    c1.654,0,3-1.346,3-3V39h4.219l0.811,3.243C32.141,42.688,32.541,43,33,43h16c0.459,0,0.859-0.312,0.97-0.757L50.781,39H59v18H23    v-2H24z M61,61H21v-1c0-0.551,0.449-1,1-1h38c0.551,0,1,0.449,1,1V61z"/></g></g></svg>